<svg width="260" height="200" viewBox="0 0 260 200" fill="none" xmlns="http://www.w3.org/2000/svg">
<path d="M235.3 111.86C235.299 99.9218 231.824 88.1353 225.13 77.3646C218.437 66.5938 208.695 57.1119 196.618 49.6141C184.541 42.1163 170.436 36.7926 155.337 34.0334C140.237 31.2743 124.527 31.1496 109.356 33.6685C94.1863 36.1874 79.9413 41.286 67.6659 48.5905C55.3905 55.8951 45.396 65.2203 38.4151 75.8825C31.4343 86.5447 27.644 98.2736 27.3223 110.209C27.0006 122.145 30.1556 133.984 36.556 144.86H226.044C232.155 134.494 235.311 123.242 235.3 111.86Z" fill="#F0F2FF"/>
<path d="M28.6 144.86H231.4" stroke="#4550E5" stroke-linecap="round" stroke-linejoin="round"/>
<path d="M16.9 144.86H23.4" stroke="#4550E5" stroke-linecap="round" stroke-linejoin="round"/>
<path d="M236.6 144.86H243.1" stroke="#4550E5" stroke-linecap="round" stroke-linejoin="round"/>
<path d="M177.71 82.58H70.85C65.6806 82.58 61.49 85.8035 61.49 89.78V144.38C61.49 148.356 65.6806 151.58 70.85 151.58H177.71C182.879 151.58 187.07 148.356 187.07 144.38V89.78C187.07 85.8035 182.879 82.58 177.71 82.58Z" fill="#D6DAFF"/>
<path d="M137.436 82.58H72.254C69.3992 82.58 66.6613 83.4523 64.6427 85.0051C62.6241 86.5579 61.49 88.664 61.49 90.86V141L137.436 82.58Z" fill="white"/>
<path d="M177.71 82.58H70.85C65.6806 82.58 61.49 85.8035 61.49 89.78V144.38C61.49 148.356 65.6806 151.58 70.85 151.58H177.71C182.879 151.58 187.07 148.356 187.07 144.38V89.78C187.07 85.8035 182.879 82.58 177.71 82.58Z" stroke="#4550E5" stroke-linecap="round" stroke-linejoin="round"/>
<path d="M176.306 151.58C177.73 151.593 179.144 151.389 180.465 150.979C181.786 150.569 182.988 149.961 184.001 149.191C185.015 148.42 185.819 147.503 186.368 146.492C186.917 145.481 187.2 144.396 187.2 143.3V140.54H61.49V143.3C61.49 145.496 62.6241 147.602 64.6427 149.155C66.6613 150.708 69.3992 151.58 72.254 151.58H176.306Z" fill="white" stroke="#4550E5" stroke-linecap="round" stroke-linejoin="round"/>
<path d="M135.044 162.62H113.516L115.31 151.58H133.25L135.044 162.62Z" fill="white"/>
<path d="M135.044 162.62H113.516L115.31 151.58H133.25L135.044 162.62Z" stroke="#4550E5" stroke-linecap="round" stroke-linejoin="round"/>
<path d="M147.602 168.14H100.958C100.958 166.676 101.714 165.272 103.06 164.237C104.406 163.202 106.231 162.62 108.134 162.62H140.4C142.306 162.62 144.134 163.201 145.483 164.236C146.833 165.27 147.595 166.674 147.602 168.14Z" fill="white" stroke="#4550E5" stroke-linecap="round" stroke-linejoin="round"/>
<path d="M90.194 72.92H194.194V120.56C194.194 121.833 193.537 123.054 192.366 123.954C191.196 124.854 189.609 125.36 187.954 125.36H96.434C94.7791 125.36 93.1919 124.854 92.0217 123.954C90.8514 123.054 90.194 121.833 90.194 120.56V72.92Z" fill="white" stroke="#4550E5" stroke-linecap="round" stroke-linejoin="round"/>
<path d="M96.434 56.36H188.006C189.661 56.36 191.248 56.8657 192.418 57.7659C193.589 58.666 194.246 59.8869 194.246 61.16V72.92H90.246V61.16C90.2459 59.8938 90.8962 58.679 92.0552 57.7799C93.2142 56.8809 94.7881 56.3705 96.434 56.36Z" fill="white" stroke="#4550E5" stroke-linecap="round" stroke-linejoin="round"/>
<path d="M100.958 67.4C102.94 67.4 104.546 66.1643 104.546 64.64C104.546 63.1157 102.94 61.88 100.958 61.88C98.9764 61.88 97.37 63.1157 97.37 64.64C97.37 66.1643 98.9764 67.4 100.958 67.4Z" fill="#D6DAFF" stroke="#4550E5" stroke-linecap="round" stroke-linejoin="round"/>
<path d="M115.31 67.4C117.292 67.4 118.898 66.1643 118.898 64.64C118.898 63.1157 117.292 61.88 115.31 61.88C113.328 61.88 111.722 63.1157 111.722 64.64C111.722 66.1643 113.328 67.4 115.31 67.4Z" fill="#D6DAFF" stroke="#4550E5" stroke-linecap="round" stroke-linejoin="round"/>
<path d="M129.662 67.4C131.644 67.4 133.25 66.1643 133.25 64.64C133.25 63.1157 131.644 61.88 129.662 61.88C127.68 61.88 126.074 63.1157 126.074 64.64C126.074 66.1643 127.68 67.4 129.662 67.4Z" fill="#D6DAFF" stroke="#4550E5" stroke-linecap="round" stroke-linejoin="round"/>
<path d="M134.238 89.48H125.086C123.65 89.48 122.486 90.3754 122.486 91.48V98.52C122.486 99.6245 123.65 100.52 125.086 100.52H134.238C135.674 100.52 136.838 99.6245 136.838 98.52V91.48C136.838 90.3754 135.674 89.48 134.238 89.48Z" fill="#D6DAFF" stroke="#4550E5" stroke-linecap="round" stroke-linejoin="round"/>
<path d="M157.56 89.48H148.408C146.972 89.48 145.808 90.3754 145.808 91.48V98.52C145.808 99.6245 146.972 100.52 148.408 100.52H157.56C158.996 100.52 160.16 99.6245 160.16 98.52V91.48C160.16 90.3754 158.996 89.48 157.56 89.48Z" fill="#D6DAFF" stroke="#4550E5" stroke-linecap="round" stroke-linejoin="round"/>
<path d="M180.882 89.48H171.73C170.294 89.48 169.13 90.3754 169.13 91.48V98.52C169.13 99.6245 170.294 100.52 171.73 100.52H180.882C182.318 100.52 183.482 99.6245 183.482 98.52V91.48C183.482 90.3754 182.318 89.48 180.882 89.48Z" fill="#D6DAFF" stroke="#4550E5" stroke-linecap="round" stroke-linejoin="round"/>
<path d="M134.238 106.04H125.086C123.65 106.04 122.486 106.935 122.486 108.04V115.08C122.486 116.185 123.65 117.08 125.086 117.08H134.238C135.674 117.08 136.838 116.185 136.838 115.08V108.04C136.838 106.935 135.674 106.04 134.238 106.04Z" fill="#D6DAFF" stroke="#4550E5" stroke-linecap="round" stroke-linejoin="round"/>
<path d="M157.56 106.04H148.408C146.972 106.04 145.808 106.935 145.808 108.04V115.08C145.808 116.185 146.972 117.08 148.408 117.08H157.56C158.996 117.08 160.16 116.185 160.16 115.08V108.04C160.16 106.935 158.996 106.04 157.56 106.04Z" fill="#D6DAFF" stroke="#4550E5" stroke-linecap="round" stroke-linejoin="round"/>
<path d="M180.882 106.04H171.73C170.294 106.04 169.13 106.935 169.13 108.04V115.08C169.13 116.185 170.294 117.08 171.73 117.08H180.882C182.318 117.08 183.482 116.185 183.482 115.08V108.04C183.482 106.935 182.318 106.04 180.882 106.04Z" fill="#D6DAFF" stroke="#4550E5" stroke-linecap="round" stroke-linejoin="round"/>
<path d="M112.71 78.4399H103.558C102.122 78.4399 100.958 79.3354 100.958 80.4399V81.9599C100.958 83.0645 102.122 83.9599 103.558 83.9599H112.71C114.146 83.9599 115.31 83.0645 115.31 81.9599V80.4399C115.31 79.3354 114.146 78.4399 112.71 78.4399Z" fill="#D6DAFF" stroke="#4550E5" stroke-linecap="round" stroke-linejoin="round"/>
<path d="M180.882 78.4399H125.086C123.65 78.4399 122.486 79.3354 122.486 80.4399V81.9599C122.486 83.0645 123.65 83.9599 125.086 83.9599H180.882C182.318 83.9599 183.482 83.0645 183.482 81.9599V80.4399C183.482 79.3354 182.318 78.4399 180.882 78.4399Z" fill="#D6DAFF" stroke="#4550E5" stroke-linejoin="round"/>
<path d="M100.958 89.48H115.31" stroke="#4550E5" stroke-linecap="round" stroke-linejoin="round"/>
<path d="M100.958 95H115.31" stroke="#4550E5" stroke-linecap="round" stroke-linejoin="round"/>
<path d="M100.958 100.52H115.31" stroke="#4550E5" stroke-linecap="round" stroke-linejoin="round"/>
<path d="M100.958 106.04H115.31" stroke="#4550E5" stroke-linecap="round" stroke-linejoin="round"/>
<path d="M100.958 111.56H115.31" stroke="#4550E5" stroke-linecap="round" stroke-linejoin="round"/>
<path d="M100.958 117.08H109.928" stroke="#4550E5" stroke-linecap="round" stroke-linejoin="round"/>
<path d="M217.568 147.3C217.048 148.76 216.008 148.8 215.254 147.3L203.476 125.68C202.722 124.28 203.476 123.68 205.426 124.2L233.662 133.24C235.482 133.84 235.404 134.64 233.506 135.04L224.458 137.04C223.433 137.303 222.5 137.746 221.734 138.332C220.967 138.918 220.387 139.633 220.038 140.42L217.568 147.3Z" fill="white" stroke="#4550E5" stroke-linejoin="round"/>
<path d="M124.28 147.22C125.113 147.22 125.788 146.701 125.788 146.06C125.788 145.419 125.113 144.9 124.28 144.9C123.447 144.9 122.772 145.419 122.772 146.06C122.772 146.701 123.447 147.22 124.28 147.22Z" stroke="#4550E5" stroke-linecap="round" stroke-linejoin="round"/>
</svg>
