<svg width="50" height="50" viewBox="0 0 50 50" fill="none" xmlns="http://www.w3.org/2000/svg">
<rect width="50" height="50" fill="black"/>
<path d="M49.9854 0H0.0146484C0.00655833 0 0 0.00655833 0 0.0146484V49.9854C0 49.9934 0.00655833 50 0.0146484 50H49.9854C49.9934 50 50 49.9934 50 49.9854V0.0146484C50 0.00655833 49.9934 0 49.9854 0Z" fill="#4455DD"/>
<path d="M32.1289 9.96094H17.8711C13.5024 9.96094 9.96094 13.5024 9.96094 17.8711V32.1289C9.96094 36.4976 13.5024 40.0391 17.8711 40.0391H32.1289C36.4976 40.0391 40.0391 36.4976 40.0391 32.1289V17.8711C40.0391 13.5024 36.4976 9.96094 32.1289 9.96094Z" stroke="black" stroke-width="3"/>
<path d="M25 32.0312C28.8833 32.0312 32.0312 28.8833 32.0312 25C32.0312 21.1167 28.8833 17.9688 25 17.9688C21.1167 17.9688 17.9688 21.1167 17.9688 25C17.9688 28.8833 21.1167 32.0312 25 32.0312Z" stroke="black" stroke-width="3"/>
<path d="M33.8867 16.6992C34.2103 16.6992 34.4727 16.4369 34.4727 16.1133C34.4727 15.7897 34.2103 15.5273 33.8867 15.5273C33.5631 15.5273 33.3008 15.7897 33.3008 16.1133C33.3008 16.4369 33.5631 16.6992 33.8867 16.6992Z" stroke="black" stroke-width="3"/>
</svg>
