<svg width="424" height="424" viewBox="0 0 424 424" fill="none" xmlns="http://www.w3.org/2000/svg">
<path d="M381.6 227.603C381.598 202.294 375.931 177.307 365.016 154.473C354.1 131.639 338.213 111.537 318.519 95.642C298.824 79.7466 275.822 68.4605 251.198 62.611C226.575 56.7616 200.954 56.4973 176.215 61.8373C151.476 67.1774 128.246 77.9865 108.227 93.4721C88.2092 108.958 71.9105 128.727 60.5263 151.331C49.1421 173.935 42.9611 198.8 42.4364 224.104C41.9118 249.407 47.0569 274.507 57.4944 297.563H366.506C376.471 275.587 381.618 251.733 381.6 227.603Z" fill="#F0F2FF"/>
<path d="M46.64 297.563H377.36" stroke="#4550E5" stroke-linecap="round" stroke-linejoin="round"/>
<path d="M27.56 297.563H38.16" stroke="#4550E5" stroke-linecap="round" stroke-linejoin="round"/>
<path d="M385.84 297.563H396.44" stroke="#4550E5" stroke-linecap="round" stroke-linejoin="round"/>
<path d="M271.911 184.906L287.133 212.806C288.835 215.927 289.724 219.426 289.719 222.982V273.862L293.154 277.338C294.746 278.921 295.646 281.071 295.655 283.317V297.606H271.911V184.906Z" fill="#D6DAFF" stroke="#4550E5" stroke-linecap="round" stroke-linejoin="round"/>
<path d="M277.847 265.042H292.687" stroke="#4550E5" stroke-linecap="round" stroke-linejoin="round"/>
<path d="M117.575 184.906L102.354 212.806C100.652 215.927 99.7625 219.426 99.7672 222.982V273.862L96.2904 277.338C94.7135 278.928 93.8295 281.077 93.8312 283.317V297.606H117.575V184.906Z" fill="#D6DAFF" stroke="#4550E5" stroke-linecap="round" stroke-linejoin="round"/>
<path d="M334.96 94.764C334.086 94.7606 333.221 94.9336 332.416 95.2728C332.001 92.4657 330.591 89.9013 328.443 88.0473C326.294 86.1933 323.551 85.1733 320.714 85.1733C317.876 85.1733 315.133 86.1933 312.985 88.0473C310.836 89.9013 309.426 92.4657 309.011 95.2728C308.206 94.9336 307.341 94.7606 306.467 94.764C304.578 94.764 302.766 95.5145 301.43 96.8503C300.095 98.1862 299.344 99.998 299.344 101.887C299.344 103.776 300.095 105.588 301.43 106.924C302.766 108.26 304.578 109.01 306.467 109.01H334.96C336.849 109.01 338.661 108.26 339.997 106.924C341.333 105.588 342.083 103.776 342.083 101.887C342.083 99.998 341.333 98.1862 339.997 96.8503C338.661 95.5145 336.849 94.764 334.96 94.764Z" fill="white"/>
<path d="M334.96 94.764C334.086 94.7606 333.221 94.9336 332.416 95.2728C332.001 92.4657 330.591 89.9013 328.443 88.0473C326.294 86.1933 323.551 85.1733 320.714 85.1733C317.876 85.1733 315.133 86.1933 312.985 88.0473C310.836 89.9013 309.426 92.4657 309.011 95.2728C308.206 94.9336 307.341 94.7606 306.467 94.764C304.578 94.764 302.766 95.5145 301.43 96.8503C300.095 98.1862 299.344 99.998 299.344 101.887C299.344 103.776 300.095 105.588 301.43 106.924C302.766 108.26 304.578 109.01 306.467 109.01H334.96C336.849 109.01 338.661 108.26 339.997 106.924C341.333 105.588 342.083 103.776 342.083 101.887C342.083 99.998 341.333 98.1862 339.997 96.8503C338.661 95.5145 336.849 94.764 334.96 94.764V94.764Z" stroke="#4550E5" stroke-linejoin="round"/>
<path d="M224.423 72.1224V146.322H165.063V72.1224H111.639V265.042L114.607 268.01V279.882L111.639 282.85V297.69H277.847V279.882L274.879 276.914V268.01L277.847 265.042V72.1224H224.423Z" fill="white"/>
<path d="M334.96 94.764C334.086 94.7606 333.221 94.9336 332.416 95.2728C332.001 92.4657 330.591 89.9013 328.443 88.0473C326.294 86.1933 323.551 85.1733 320.714 85.1733C317.876 85.1733 315.133 86.1933 312.985 88.0473C310.836 89.9013 309.426 92.4657 309.011 95.2728C308.206 94.9336 307.341 94.7606 306.467 94.764C304.578 94.764 302.766 95.5145 301.43 96.8503C300.095 98.1862 299.344 99.998 299.344 101.887C299.344 103.776 300.095 105.588 301.43 106.924C302.766 108.26 304.578 109.01 306.467 109.01H334.96C336.849 109.01 338.661 108.26 339.997 106.924C341.333 105.588 342.083 103.776 342.083 101.887C342.083 99.998 341.333 98.1862 339.997 96.8503C338.661 95.5145 336.849 94.764 334.96 94.764V94.764Z" stroke="#4550E5" stroke-linejoin="round"/>
<path d="M224.423 72.1224V146.322H165.063V72.1224H111.639V265.042L114.607 268.01V279.882L111.639 282.85V297.69H277.847V279.882L274.879 276.914V268.01L277.847 265.042V72.1224H224.423Z" stroke="#4550E5" stroke-linecap="round" stroke-linejoin="round"/>
<path d="M277.847 223.49H111.639V241.298H277.847V223.49Z" fill="#D6DAFF" stroke="#4550E5" stroke-linecap="round" stroke-linejoin="round"/>
<path d="M281.027 146.322H108.417C108.151 146.325 107.892 146.4 107.665 146.537C107.438 146.675 107.252 146.87 107.126 147.104C107 147.338 106.94 147.601 106.951 147.866C106.961 148.132 107.043 148.389 107.187 148.612C110 152.953 111.475 158.025 111.427 163.198V170.066H277.635V163.198C277.585 158.025 279.06 152.952 281.875 148.612C282.013 148.415 282.101 148.188 282.132 147.95C282.163 147.712 282.135 147.47 282.052 147.245C281.968 147.02 281.831 146.818 281.653 146.658C281.475 146.497 281.26 146.382 281.027 146.322Z" fill="#D6DAFF" stroke="#4550E5" stroke-linecap="round" stroke-linejoin="round"/>
<path d="M194.743 253.17C190.363 254.924 186.608 257.949 183.963 261.856C181.318 265.763 179.904 270.373 179.903 275.091V297.69H209.583V275.091C209.571 270.376 208.152 265.771 205.509 261.866C202.865 257.961 199.117 254.933 194.743 253.17Z" fill="#D6DAFF" stroke="#4550E5" stroke-linecap="round" stroke-linejoin="round"/>
<path d="M138.351 259.106C134.567 261.336 131.462 264.556 129.371 268.418C127.279 272.28 126.279 276.639 126.479 281.027V297.69H150.223V281.027C150.414 276.641 149.41 272.285 147.319 268.425C145.228 264.564 142.129 261.343 138.351 259.106Z" fill="#D6DAFF" stroke="#4550E5" stroke-linecap="round" stroke-linejoin="round"/>
<path d="M138.351 184.906C134.567 187.136 131.462 190.356 129.371 194.218C127.279 198.08 126.279 202.439 126.479 206.827V223.49H150.223V206.827C150.414 202.441 149.41 198.085 147.319 194.225C145.228 190.364 142.129 187.143 138.351 184.906Z" fill="#D6DAFF" stroke="#4550E5" stroke-linecap="round" stroke-linejoin="round"/>
<path d="M251.135 184.906C247.351 187.136 244.247 190.356 242.155 194.218C240.063 198.08 239.063 202.439 239.263 206.827V223.49H262.88V206.827C263.083 202.453 262.099 198.106 260.031 194.247C257.963 190.387 254.889 187.16 251.135 184.906Z" fill="#D6DAFF" stroke="#4550E5" stroke-linecap="round" stroke-linejoin="round"/>
<path d="M251.135 259.106C247.351 261.336 244.247 264.556 242.155 268.418C240.063 272.28 239.063 276.639 239.263 281.027V297.69H262.88V281.027C263.083 276.653 262.099 272.306 260.031 268.447C257.963 264.587 254.889 261.36 251.135 259.106Z" fill="#D6DAFF" stroke="#4550E5" stroke-linecap="round" stroke-linejoin="round"/>
<path d="M165.063 223.49V262.074" stroke="#4550E5" stroke-linecap="round" stroke-linejoin="round"/>
<path d="M224.423 223.49V262.074" stroke="#4550E5" stroke-linecap="round" stroke-linejoin="round"/>
<path d="M165.063 170.066V184.906" stroke="#4550E5" stroke-linecap="round" stroke-linejoin="round"/>
<path d="M224.423 170.066V184.906" stroke="#4550E5" stroke-linecap="round" stroke-linejoin="round"/>
<path d="M194.743 178.97C188.446 178.97 182.407 181.472 177.954 185.925C173.501 190.378 170.999 196.417 170.999 202.714V223.49H218.487V202.714C218.487 196.417 215.986 190.378 211.533 185.925C207.08 181.472 201.041 178.97 194.743 178.97Z" fill="#D6DAFF" stroke="#4550E5" stroke-linecap="round" stroke-linejoin="round"/>
<path d="M194.743 217.554C202.939 217.554 209.583 210.91 209.583 202.714C209.583 194.518 202.939 187.874 194.743 187.874C186.547 187.874 179.903 194.518 179.903 202.714C179.903 210.91 186.547 217.554 194.743 217.554Z" fill="#D6DAFF"/>
<path d="M205.343 192.411C203.976 190.976 202.331 189.834 200.509 189.054C198.687 188.274 196.725 187.873 194.743 187.874C191.147 187.815 187.652 189.066 184.912 191.396C182.172 193.726 180.374 196.973 179.855 200.532C179.335 204.091 180.129 207.717 182.089 210.733C184.049 213.749 187.04 215.948 190.503 216.918L205.343 192.411Z" fill="white"/>
<path d="M194.743 217.554C202.939 217.554 209.583 210.91 209.583 202.714C209.583 194.518 202.939 187.874 194.743 187.874C186.547 187.874 179.903 194.518 179.903 202.714C179.903 210.91 186.547 217.554 194.743 217.554Z" stroke="#4550E5" stroke-linecap="round" stroke-linejoin="round"/>
<path d="M165.063 270.978V276.914" stroke="#4550E5" stroke-linecap="round" stroke-linejoin="round"/>
<path d="M224.423 270.978V276.914" stroke="#4550E5" stroke-linecap="round" stroke-linejoin="round"/>
<path d="M138.351 241.298V223.49" stroke="#4550E5" stroke-linecap="round" stroke-linejoin="round"/>
<path d="M123.511 241.298V232.394" stroke="#4550E5" stroke-linecap="round" stroke-linejoin="round"/>
<path d="M153.191 241.298V232.394" stroke="#4550E5" stroke-linecap="round" stroke-linejoin="round"/>
<path d="M194.743 241.298V223.49" stroke="#4550E5" stroke-linecap="round" stroke-linejoin="round"/>
<path d="M179.903 241.298V232.394" stroke="#4550E5" stroke-linecap="round" stroke-linejoin="round"/>
<path d="M209.583 241.298V232.394" stroke="#4550E5" stroke-linecap="round" stroke-linejoin="round"/>
<path d="M251.135 241.298V223.49" stroke="#4550E5" stroke-linecap="round" stroke-linejoin="round"/>
<path d="M236.295 241.298V232.394" stroke="#4550E5" stroke-linecap="round" stroke-linejoin="round"/>
<path d="M265.975 241.298V232.394" stroke="#4550E5" stroke-linecap="round" stroke-linejoin="round"/>
<path d="M134.959 151.834L132.415 149.29L129.871 151.834C128.789 152.913 127.932 154.195 127.35 155.607C126.768 157.019 126.472 158.533 126.479 160.06V170.066H138.351V160.06C138.348 156.978 137.129 154.023 134.959 151.834Z" fill="white" stroke="#4550E5" stroke-linecap="round" stroke-linejoin="round"/>
<path d="M166.123 151.834L163.579 149.29L161.035 151.834C159.953 152.913 159.096 154.195 158.514 155.607C157.932 157.019 157.636 158.533 157.643 160.06V170.066H169.6V160.06C169.574 156.966 168.324 154.009 166.123 151.834Z" fill="white" stroke="#4550E5" stroke-linecap="round" stroke-linejoin="round"/>
<path d="M197.287 151.834L194.743 149.29L192.199 151.834C191.117 152.913 190.26 154.195 189.678 155.607C189.096 157.019 188.8 158.533 188.807 160.06V170.066H200.679V160.06C200.676 156.978 199.457 154.023 197.287 151.834Z" fill="white" stroke="#4550E5" stroke-linecap="round" stroke-linejoin="round"/>
<path d="M228.451 151.834L225.907 149.29L223.363 151.834C222.281 152.913 221.424 154.195 220.842 155.607C220.26 157.019 219.964 158.533 219.971 160.06V170.066H231.843V160.06C231.84 156.978 230.621 154.023 228.451 151.834Z" fill="white" stroke="#4550E5" stroke-linecap="round" stroke-linejoin="round"/>
<path d="M254.4 151.834L256.944 149.29L259.488 151.834C261.658 154.023 262.876 156.978 262.88 160.06V170.066H251.008V160.06C251 158.533 251.296 157.019 251.879 155.607C252.461 154.195 253.318 152.913 254.4 151.834Z" fill="white" stroke="#4550E5" stroke-linecap="round" stroke-linejoin="round"/>
<path d="M150.223 146.322V152.258" stroke="#4550E5" stroke-linecap="round" stroke-linejoin="round"/>
<path d="M120.543 146.322V152.258" stroke="#4550E5" stroke-linecap="round" stroke-linejoin="round"/>
<path d="M179.903 146.322V152.258" stroke="#4550E5" stroke-linecap="round" stroke-linejoin="round"/>
<path d="M209.583 146.322V152.258" stroke="#4550E5" stroke-linecap="round" stroke-linejoin="round"/>
<path d="M239.263 146.322V152.258" stroke="#4550E5" stroke-linecap="round" stroke-linejoin="round"/>
<path d="M268.943 146.322V152.258" stroke="#4550E5" stroke-linecap="round" stroke-linejoin="round"/>
<path d="M193.09 276.914H196.482C197.606 276.914 198.685 277.361 199.48 278.156C200.275 278.951 200.722 280.03 200.722 281.154V297.69H188.85V281.154C188.85 280.03 189.296 278.951 190.091 278.156C190.887 277.361 191.965 276.914 193.09 276.914Z" fill="#D6DAFF"/>
<path d="M196.482 276.914H193.09C191.965 276.914 190.887 277.361 190.091 278.156C189.296 278.951 188.85 280.03 188.85 281.154V297.69H189.698L200.467 279.84C200.192 278.997 199.66 278.261 198.945 277.736C198.23 277.211 197.368 276.924 196.482 276.914Z" fill="white"/>
<path d="M193.09 276.914H196.482C197.606 276.914 198.685 277.361 199.48 278.156C200.275 278.951 200.722 280.03 200.722 281.154V297.69H188.85V281.154C188.85 280.03 189.296 278.951 190.091 278.156C190.887 277.361 191.965 276.914 193.09 276.914Z" stroke="#4550E5" stroke-linecap="round" stroke-linejoin="round"/>
<path d="M126.479 95.8664C124.592 97.7534 123.096 99.9946 122.078 102.461C121.059 104.928 120.538 107.571 120.543 110.24V146.365H132.415V110.24C132.403 104.855 130.271 99.6907 126.479 95.8664Z" fill="#D6DAFF"/>
<path d="M132.415 115.794V110.24C132.392 104.869 130.26 99.7227 126.479 95.9088C124.597 97.7908 123.104 100.025 122.086 102.484C121.067 104.943 120.543 107.578 120.543 110.24V135.68L132.415 115.794Z" fill="white"/>
<path d="M126.479 95.8664C124.592 97.7534 123.096 99.9946 122.078 102.461C121.059 104.928 120.538 107.571 120.543 110.24V146.365H132.415V110.24C132.403 104.855 130.271 99.6907 126.479 95.8664V95.8664Z" stroke="#4550E5" stroke-linecap="round" stroke-linejoin="round"/>
<path d="M150.223 95.8664C148.313 97.7429 146.794 99.9793 145.753 102.446C144.713 104.914 144.171 107.562 144.16 110.24V146.365H156.032V110.24C156.054 104.873 153.968 99.7112 150.223 95.8664Z" fill="#D6DAFF"/>
<path d="M156.159 115.794V110.24C156.136 104.869 154.005 99.7227 150.223 95.9088C148.318 97.7803 146.802 100.01 145.761 102.469C144.721 104.929 144.177 107.57 144.16 110.24V135.68L156.159 115.794Z" fill="white"/>
<path d="M150.223 95.8664C148.313 97.7429 146.794 99.9793 145.753 102.446C144.713 104.914 144.171 107.562 144.16 110.24V146.365H156.032V110.24C156.054 104.873 153.968 99.7112 150.223 95.8664V95.8664Z" stroke="#4550E5" stroke-linecap="round" stroke-linejoin="round"/>
<path d="M239.263 95.8664C237.353 97.7429 235.834 99.9793 234.793 102.446C233.753 104.914 233.211 107.562 233.2 110.24V146.365H245.072V110.24C245.094 104.873 243.008 99.7112 239.263 95.8664Z" fill="#D6DAFF"/>
<path d="M245.199 115.794V110.24C245.176 104.869 243.044 99.7227 239.263 95.9088C237.358 97.7803 235.842 100.01 234.801 102.469C233.761 104.929 233.217 107.57 233.2 110.24V135.68L245.199 115.794Z" fill="white"/>
<path d="M239.263 95.8664C237.353 97.7429 235.834 99.9793 234.793 102.446C233.753 104.914 233.211 107.562 233.2 110.24V146.365H245.072V110.24C245.094 104.873 243.008 99.7112 239.263 95.8664V95.8664Z" stroke="#4550E5" stroke-linecap="round" stroke-linejoin="round"/>
<path d="M262.88 95.8664C259.115 99.6984 257.026 104.868 257.071 110.24V146.365H268.943V110.24C268.898 104.836 266.718 99.67 262.88 95.8664Z" fill="#D6DAFF"/>
<path d="M268.943 115.794V110.24C268.898 104.836 266.718 99.67 262.88 95.8664C259.115 99.6984 257.026 104.868 257.071 110.24V135.68L268.943 115.794Z" fill="white"/>
<path d="M262.88 95.8664C259.115 99.6984 257.026 104.868 257.071 110.24V146.365H268.943V110.24C268.898 104.836 266.718 99.67 262.88 95.8664V95.8664Z" stroke="#4550E5" stroke-linecap="round" stroke-linejoin="round"/>
<path d="M108.671 83.9944H168.031" stroke="#4550E5" stroke-linecap="round" stroke-linejoin="round"/>
<path d="M108.671 72.1224H168.031" stroke="#4550E5" stroke-linecap="round" stroke-linejoin="round"/>
<path d="M221.455 83.9944H280.815" stroke="#4550E5" stroke-linecap="round" stroke-linejoin="round"/>
<path d="M221.455 72.1224H280.815" stroke="#4550E5" stroke-linecap="round" stroke-linejoin="round"/>
<path d="M108.671 170.066H280.815" stroke="#4550E5" stroke-linecap="round" stroke-linejoin="round"/>
<path d="M96.7992 223.49H292.687" stroke="#4550E5" stroke-linecap="round" stroke-linejoin="round"/>
<path d="M111.639 265.042H96.7992" stroke="#4550E5" stroke-linecap="round" stroke-linejoin="round"/>
<path d="M165.063 72.1224H111.639V83.9944H165.063V72.1224Z" fill="#D6DAFF" stroke="#4550E5" stroke-linecap="round" stroke-linejoin="round"/>
<path d="M277.847 72.1224H224.423V83.9944H277.847V72.1224Z" fill="#D6DAFF" stroke="#4550E5" stroke-linecap="round" stroke-linejoin="round"/>
<path d="M194.743 187.874V217.554" stroke="#4550E5" stroke-linecap="round" stroke-linejoin="round"/>
<path d="M179.903 202.714H209.583" stroke="#4550E5" stroke-linecap="round" stroke-linejoin="round"/>
<path d="M150.223 205.682H126.479V223.49H150.223V205.682Z" fill="#D6DAFF"/>
<path d="M126.479 205.682V223.49H135.383L146.068 205.682H126.479Z" fill="white"/>
<path d="M150.223 205.682H126.479V223.49H150.223V205.682Z" stroke="#4550E5" stroke-linecap="round" stroke-linejoin="round"/>
<path d="M263.007 205.682H239.263V223.49H263.007V205.682Z" fill="#D6DAFF"/>
<path d="M239.263 205.682V223.49H248.167L258.852 205.682H239.263Z" fill="white"/>
<path d="M263.007 205.682H239.263V223.49H263.007V205.682Z" stroke="#4550E5" stroke-linecap="round" stroke-linejoin="round"/>
<path d="M150.223 279.882H126.479V297.69H150.223V279.882Z" fill="#D6DAFF"/>
<path d="M126.479 279.882V297.69H135.383L146.068 279.882H126.479Z" fill="white"/>
<path d="M150.223 279.882H126.479V297.69H150.223V279.882Z" stroke="#4550E5" stroke-linecap="round" stroke-linejoin="round"/>
<path d="M263.007 279.882H239.263V297.69H263.007V279.882Z" fill="#D6DAFF"/>
<path d="M239.263 279.882V297.69H248.167L258.852 279.882H239.263Z" fill="white"/>
<path d="M263.007 279.882H239.263V297.69H263.007V279.882Z" stroke="#4550E5" stroke-linecap="round" stroke-linejoin="round"/>
<path d="M334.96 264.025C334.96 273.862 331.441 282.384 327.498 282.384C323.554 282.384 320.035 273.904 320.035 264.025C320.035 254.146 327.498 228.282 327.498 228.282C327.498 228.282 334.96 254.146 334.96 264.025Z" fill="#D6DAFF" stroke="#4550E5" stroke-linecap="round" stroke-linejoin="round"/>
<path d="M327.625 282.384V297.69" stroke="#4550E5" stroke-linecap="round" stroke-linejoin="round"/>
<path d="M72.928 237.44C72.7493 240.394 71.4498 243.169 69.2946 245.198C67.1395 247.226 64.2914 248.356 61.3316 248.356C58.3719 248.356 55.5238 247.226 53.3686 245.198C51.2135 243.169 49.914 240.394 49.7352 237.44" stroke="#4550E5" stroke-linecap="round" stroke-linejoin="round"/>
<path d="M54.06 233.2H45.58C45.0839 233.185 44.6069 233.006 44.2232 232.691C44.1797 232.915 44.1797 233.146 44.2232 233.37L45.0712 239.687C45.1515 240.193 45.4086 240.654 45.7969 240.988C46.1851 241.321 46.6792 241.507 47.1912 241.51H52.6608C53.1704 241.514 53.6637 241.331 54.0468 240.994C54.4298 240.658 54.676 240.193 54.7384 239.687L55.5864 233.37C55.6298 233.146 55.6298 232.915 55.5864 232.691C55.3799 232.875 55.138 233.015 54.8756 233.103C54.6132 233.19 54.3356 233.223 54.06 233.2Z" fill="white" stroke="#4550E5" stroke-linecap="round" stroke-linejoin="round"/>
<path d="M49.7352 224.042C48.0333 224.053 46.4049 224.737 45.2054 225.944C44.0059 227.152 43.3328 228.784 43.3328 230.486C43.3328 232.352 44.2656 233.115 45.4528 233.115H53.9328C55.12 233.115 56.0528 232.352 56.0528 230.486C56.0531 228.799 55.3916 227.179 54.2103 225.974C53.0291 224.769 51.4223 224.075 49.7352 224.042Z" fill="#D6DAFF" stroke="#4550E5" stroke-linecap="round" stroke-linejoin="round"/>
<path d="M77.2528 233.2H68.7728C68.288 233.192 67.8219 233.012 67.4584 232.691C67.4351 232.917 67.4351 233.144 67.4584 233.37L68.3064 239.687C68.3867 240.193 68.6438 240.654 69.0321 240.988C69.4203 241.321 69.9144 241.507 70.4264 241.51H75.896C76.4056 241.514 76.8989 241.331 77.282 240.994C77.665 240.658 77.9112 240.193 77.9736 239.687L78.652 233.2C78.6752 232.974 78.6752 232.747 78.652 232.522C78.2938 232.924 77.7906 233.168 77.2528 233.2Z" fill="white" stroke="#4550E5" stroke-linecap="round" stroke-linejoin="round"/>
<path d="M72.928 224.042C71.2261 224.053 69.5977 224.737 68.3982 225.944C67.1988 227.152 66.5256 228.784 66.5256 230.486C66.5256 232.352 67.4584 233.115 68.6456 233.115H77.1256C78.3128 233.115 79.2456 232.352 79.2456 230.486C79.2459 228.799 78.5844 227.179 77.4032 225.974C76.2219 224.769 74.6151 224.075 72.928 224.042Z" fill="#D6DAFF" stroke="#4550E5" stroke-linecap="round" stroke-linejoin="round"/>
<path d="M61.3528 248.973V297.69" stroke="#4550E5" stroke-linecap="round" stroke-linejoin="round"/>
<path d="M139.793 365.997C171.406 365.997 197.033 363.149 197.033 359.637C197.033 356.124 171.406 353.277 139.793 353.277C108.18 353.277 82.5528 356.124 82.5528 359.637C82.5528 363.149 108.18 365.997 139.793 365.997Z" fill="#F0F2FF"/>
<path d="M161.968 291.034V305.958H91.0751C89.9506 305.958 88.8722 306.405 88.077 307.2C87.2819 307.995 86.8351 309.074 86.8351 310.198V345.051C86.8236 346.074 87.182 347.066 87.8442 347.845C88.5065 348.624 89.4281 349.138 90.4391 349.291L100.573 350.86H186.221C187.345 350.86 188.424 350.413 189.219 349.618C190.014 348.823 190.461 347.744 190.461 346.62V313.76C190.462 310.752 190.249 307.749 189.825 304.771L188.298 294.214C188.01 292.176 186.991 290.313 185.431 288.971C183.871 287.629 181.876 286.901 179.818 286.921H166.208C165.105 286.92 164.045 287.349 163.254 288.117C162.462 288.885 162.001 289.931 161.968 291.034Z" fill="white" stroke="#4550E5" stroke-linecap="round" stroke-linejoin="round"/>
<path d="M117.999 350.818C117.999 352.352 117.544 353.852 116.691 355.128C115.839 356.404 114.627 357.399 113.209 357.986C111.791 358.573 110.231 358.727 108.726 358.428C107.221 358.128 105.839 357.389 104.753 356.304C103.668 355.219 102.929 353.836 102.63 352.331C102.33 350.826 102.484 349.266 103.071 347.848C103.659 346.43 104.653 345.219 105.929 344.366C107.205 343.513 108.705 343.058 110.24 343.058C112.298 343.058 114.271 343.876 115.727 345.331C117.182 346.786 117.999 348.76 117.999 350.818Z" fill="#D6DAFF" stroke="#4550E5" stroke-linecap="round" stroke-linejoin="round"/>
<path d="M173.543 350.818C173.543 352.352 173.088 353.852 172.235 355.128C171.383 356.404 170.171 357.399 168.753 357.986C167.335 358.573 165.775 358.727 164.27 358.428C162.765 358.128 161.383 357.389 160.297 356.304C159.212 355.219 158.473 353.836 158.174 352.331C157.874 350.826 158.028 349.266 158.615 347.848C159.203 346.43 160.197 345.219 161.473 344.366C162.749 343.513 164.249 343.058 165.784 343.058C167.842 343.058 169.815 343.876 171.271 345.331C172.726 346.786 173.543 348.76 173.543 350.818Z" fill="#D6DAFF" stroke="#4550E5" stroke-linecap="round" stroke-linejoin="round"/>
<path d="M143.142 322.706H128.302V350.818H143.142V322.706Z" fill="#D6DAFF" stroke="#4550E5" stroke-linecap="round" stroke-linejoin="round"/>
<path d="M119.738 322.706H96.3328V335.596H119.738V322.706Z" fill="#D6DAFF"/>
<path d="M119.738 322.706H96.3328V335.596H119.738V322.706Z" stroke="#4550E5" stroke-linecap="round" stroke-linejoin="round"/>
<path d="M166.378 322.706H151.538V335.596H166.378V322.706Z" fill="#D6DAFF"/>
<path d="M166.378 322.706H151.538V335.596H166.378V322.706Z" stroke="#4550E5" stroke-linecap="round" stroke-linejoin="round"/>
<path d="M190.461 322.706H175.621V335.596H190.461V322.706Z" fill="#D6DAFF"/>
<path d="M190.461 322.706H175.621V335.596H190.461V322.706Z" stroke="#4550E5" stroke-linecap="round" stroke-linejoin="round"/>
<path d="M175.366 306.255H189.994L188.51 295.74H175.366C174.242 295.74 173.163 296.187 172.368 296.982C171.573 297.777 171.126 298.855 171.126 299.98V302.1C171.149 303.21 171.605 304.267 172.398 305.043C173.191 305.82 174.256 306.255 175.366 306.255Z" fill="#D6DAFF"/>
<path d="M175.366 306.255H189.994L188.51 295.74H175.366C174.242 295.74 173.163 296.187 172.368 296.982C171.573 297.777 171.126 298.855 171.126 299.98V302.1C171.149 303.21 171.605 304.267 172.398 305.043C173.191 305.82 174.256 306.255 175.366 306.255V306.255Z" stroke="#4550E5" stroke-linecap="round" stroke-linejoin="round"/>
<path d="M96.8416 297.69H161.968V305.958H92.6016V301.93C92.6016 300.806 93.0483 299.727 93.8435 298.932C94.6386 298.137 95.7171 297.69 96.8416 297.69Z" stroke="#4550E5" stroke-linecap="round" stroke-linejoin="round"/>
<path d="M114.31 297.69H104.431V305.958H114.31V297.69Z" stroke="#4550E5" stroke-linecap="round" stroke-linejoin="round"/>
<path d="M133.56 297.69H123.681V305.958H133.56V297.69Z" stroke="#4550E5" stroke-linecap="round" stroke-linejoin="round"/>
<path d="M153.022 297.69H143.142V305.958H153.022V297.69Z" stroke="#4550E5" stroke-linecap="round" stroke-linejoin="round"/>
<path d="M143.142 322.706H128.302V335.596H143.142V322.706Z" fill="#D6DAFF" stroke="#4550E5" stroke-linecap="round" stroke-linejoin="round"/>
<path d="M97.1384 314.354H181.726" stroke="#4550E5" stroke-linecap="round" stroke-linejoin="round"/>
</svg>
