<svg width="260" height="200" viewBox="0 0 260 200" fill="none" xmlns="http://www.w3.org/2000/svg">
<path d="M234 110.48C233.999 98.542 230.524 86.7554 223.83 75.9847C217.137 65.2139 207.395 55.732 195.318 48.2342C183.241 40.7364 169.136 35.4127 154.037 32.6536C138.937 29.8944 123.227 29.7697 108.056 32.2886C92.8863 34.8075 78.6413 39.9061 66.3659 47.2106C54.0906 54.5152 44.096 63.8404 37.1152 74.5026C30.1343 85.1649 26.344 96.8937 26.0223 108.829C25.7006 120.765 28.8556 132.604 35.256 143.48H224.744C230.857 133.115 234.013 121.862 234 110.48Z" fill="#F0F2FF"/>
<path d="M28.6 143.48H231.4" stroke="#4550E5" stroke-linecap="round" stroke-linejoin="round"/>
<path d="M16.9 143.48H23.4" stroke="#4550E5" stroke-linecap="round" stroke-linejoin="round"/>
<path d="M236.6 143.48H243.1" stroke="#4550E5" stroke-linecap="round" stroke-linejoin="round"/>
<path d="M128.518 169.5C149.842 169.5 167.128 167.969 167.128 166.08C167.128 164.191 149.842 162.66 128.518 162.66C107.194 162.66 89.908 164.191 89.908 166.08C89.908 167.969 107.194 169.5 128.518 169.5Z" fill="#F0F2FF"/>
<path d="M187.928 86.2C187.928 85.2475 187.684 84.3044 187.209 83.4247C186.734 82.545 186.039 81.746 185.162 81.0735C184.285 80.4009 183.245 79.868 182.1 79.5054C180.955 79.1427 179.728 78.9574 178.49 78.96H81.51C80.2718 78.9574 79.0451 79.1427 77.9002 79.5054C76.7553 79.868 75.7146 80.4009 74.8379 81.0735C73.9612 81.746 73.2656 82.545 72.7909 83.4247C72.3163 84.3044 72.072 85.2475 72.072 86.2V135.66H187.928V86.2Z" fill="#D6DAFF"/>
<path d="M149.474 78.96H81.51C80.2718 78.9574 79.0451 79.1427 77.9002 79.5054C76.7553 79.868 75.7146 80.4009 74.8379 81.0735C73.9612 81.746 73.2656 82.545 72.7909 83.4247C72.3163 84.3044 72.072 85.2475 72.072 86.2V135.66H75.764L149.474 78.96Z" fill="white"/>
<path d="M144.04 157.26H115.96L117.702 146.46H142.298L144.04 157.26Z" fill="white"/>
<path d="M144.04 157.26H115.96L117.702 146.46H142.298L144.04 157.26Z" stroke="#4550E5" stroke-linecap="round" stroke-linejoin="round"/>
<path d="M150.098 162.66H109.902C109.539 162.663 109.181 162.595 108.86 162.465C108.54 162.334 108.266 162.144 108.065 161.912C107.864 161.68 107.741 161.413 107.708 161.135C107.674 160.857 107.731 160.577 107.874 160.32C108.446 159.404 109.343 158.632 110.46 158.09C111.578 157.549 112.871 157.261 114.192 157.26H145.808C147.129 157.261 148.422 157.549 149.54 158.09C150.657 158.632 151.554 159.404 152.126 160.32C152.269 160.577 152.326 160.857 152.292 161.135C152.259 161.413 152.136 161.68 151.935 161.912C151.734 162.144 151.46 162.334 151.139 162.465C150.819 162.595 150.461 162.663 150.098 162.66Z" fill="white" stroke="#4550E5" stroke-linecap="round" stroke-linejoin="round"/>
<path d="M178.49 146.46C179.728 146.463 180.955 146.277 182.1 145.915C183.245 145.552 184.285 145.019 185.162 144.347C186.039 143.674 186.734 142.875 187.209 141.995C187.684 141.116 187.928 140.172 187.928 139.22V135.66H72.072V139.22C72.072 140.172 72.3163 141.116 72.7909 141.995C73.2656 142.875 73.9612 143.674 74.8379 144.347C75.7146 145.019 76.7553 145.552 77.9002 145.915C79.0451 146.277 80.2718 146.463 81.51 146.46H178.49Z" fill="white" stroke="#4550E5" stroke-linecap="round" stroke-linejoin="round"/>
<path d="M187.928 86.2C187.928 85.2475 187.684 84.3044 187.209 83.4247C186.734 82.545 186.039 81.746 185.162 81.0735C184.285 80.4009 183.245 79.868 182.1 79.5054C180.955 79.1427 179.728 78.9574 178.49 78.96H81.51C80.2718 78.9574 79.0451 79.1427 77.9002 79.5054C76.7553 79.868 75.7146 80.4009 74.8379 81.0735C73.9612 81.746 73.2656 82.545 72.7909 83.4247C72.3163 84.3044 72.072 85.2475 72.072 86.2V135.66H187.928V86.2Z" stroke="#4550E5" stroke-linecap="round" stroke-linejoin="round"/>
<path d="M131.56 141.06C131.56 141.297 131.469 141.529 131.297 141.727C131.126 141.924 130.882 142.078 130.597 142.169C130.312 142.259 129.998 142.283 129.696 142.237C129.393 142.191 129.115 142.076 128.897 141.909C128.679 141.741 128.53 141.527 128.47 141.294C128.41 141.061 128.441 140.82 128.559 140.601C128.677 140.381 128.877 140.194 129.133 140.062C129.39 139.93 129.691 139.86 130 139.86C130.414 139.86 130.811 139.986 131.103 140.211C131.396 140.436 131.56 140.742 131.56 141.06V141.06Z" stroke="#4550E5" stroke-linecap="round" stroke-linejoin="round"/>
<path d="M164.814 116.38C164.821 117.655 164.171 118.88 163.006 119.787C161.842 120.694 160.257 121.209 158.6 121.22H101.4C99.8045 121.141 98.308 120.598 97.2144 119.701C96.1208 118.804 95.5122 117.62 95.5122 116.39C95.5122 115.16 96.1208 113.977 97.2144 113.079C98.308 112.182 99.8045 111.639 101.4 111.56H158.6C160.253 111.571 161.833 112.083 162.997 112.986C164.161 113.889 164.814 115.109 164.814 116.38Z" fill="#D6DAFF" stroke="#4550E5" stroke-linejoin="round"/>
<path d="M143.364 111.56H101.4C99.8045 111.639 98.308 112.182 97.2144 113.079C96.1208 113.977 95.5122 115.16 95.5122 116.39C95.5122 117.62 96.1208 118.804 97.2144 119.701C98.308 120.598 99.8045 121.141 101.4 121.22H143.364V111.56Z" fill="white" stroke="#4550E5" stroke-linejoin="round"/>
<path d="M143.364 111.56H101.4C99.8045 111.639 98.308 112.182 97.2144 113.079C96.1208 113.977 95.5122 115.16 95.5122 116.39C95.5122 117.62 96.1208 118.804 97.2144 119.701C98.308 120.598 99.8045 121.141 101.4 121.22H143.364V111.56Z" stroke="#4550E5" stroke-linejoin="round"/>
<path d="M109.746 46.68C109.153 46.6716 108.568 46.7913 108.058 47.0258C107.549 47.2602 107.135 47.5999 106.865 48.0062C106.594 48.4125 106.477 48.8691 106.526 49.3241C106.576 49.7791 106.791 50.2142 107.146 50.58L127.4 70.76C127.697 71.0511 128.076 71.2865 128.508 71.4483C128.941 71.6102 129.415 71.6943 129.896 71.6943C130.377 71.6943 130.852 71.6102 131.284 71.4483C131.716 71.2865 132.095 71.0511 132.392 70.76L152.646 50.58C153.001 50.2142 153.216 49.7791 153.266 49.3241C153.316 48.8691 153.198 48.4125 152.927 48.0062C152.657 47.5999 152.243 47.2602 151.734 47.0258C151.224 46.7913 150.639 46.6716 150.046 46.68H142.246V35.48C142.246 34.2017 141.586 32.9757 140.411 32.0718C139.236 31.1679 137.642 30.66 135.98 30.66H123.708C122.046 30.66 120.452 31.1679 119.277 32.0718C118.102 32.9757 117.442 34.2017 117.442 35.48V46.68H109.746Z" fill="white"/>
<path d="M109.746 46.68C109.153 46.6716 108.568 46.7913 108.058 47.0258C107.549 47.2602 107.135 47.5999 106.865 48.0062C106.594 48.4125 106.477 48.8691 106.526 49.3241C106.576 49.7791 106.791 50.2142 107.146 50.58L127.4 70.76C127.697 71.0511 128.076 71.2865 128.508 71.4483C128.941 71.6102 129.415 71.6943 129.896 71.6943C130.377 71.6943 130.852 71.6102 131.284 71.4483C131.716 71.2865 132.095 71.0511 132.392 70.76L152.646 50.58C153.001 50.2142 153.216 49.7791 153.266 49.3241C153.316 48.8691 153.198 48.4125 152.927 48.0062C152.657 47.5999 152.243 47.2602 151.734 47.0258C151.224 46.7913 150.639 46.6716 150.046 46.68H142.246V35.48C142.246 34.2017 141.586 32.9757 140.411 32.0718C139.236 31.1679 137.642 30.66 135.98 30.66H123.708C122.046 30.66 120.452 31.1679 119.277 32.0718C118.102 32.9757 117.442 34.2017 117.442 35.48V46.68H109.746Z" stroke="#4550E5" stroke-linejoin="round"/>
</svg>
