<svg width="240" height="200" viewBox="0 0 240 200" fill="none" xmlns="http://www.w3.org/2000/svg">
<path d="M215.736 106.9C215.725 94.9622 212.507 83.1778 206.32 72.4109C200.133 61.644 191.133 52.1674 179.979 44.6761C168.825 37.1847 155.801 31.8685 141.862 29.1171C127.922 26.3658 113.42 26.249 99.4192 28.7754C85.4184 31.3019 72.2735 36.4074 60.9483 43.7178C49.6231 51.0282 40.4047 60.3581 33.969 71.0234C27.5334 81.6887 24.0436 93.419 23.7554 105.354C23.4673 117.29 26.3882 129.128 32.304 140H207.192C212.852 129.604 215.766 118.316 215.736 106.9Z" fill="#F0F2FF"/>
<path d="M24.936 139.9H212.136" stroke="#4550E5" stroke-linecap="round" stroke-linejoin="round"/>
<path d="M14.136 139.9H20.136" stroke="#4550E5" stroke-linecap="round" stroke-linejoin="round"/>
<path d="M216.936 139.9H222.936" stroke="#4550E5" stroke-linecap="round" stroke-linejoin="round"/>
<path d="M120.264 173.08C141.14 173.08 158.064 171.674 158.064 169.94C158.064 168.206 141.14 166.8 120.264 166.8C99.3876 166.8 82.464 168.206 82.464 169.94C82.464 171.674 99.3876 173.08 120.264 173.08Z" fill="#F0F2FF"/>
<path d="M167.112 142.22V102C167.112 100.663 166.475 99.3814 165.341 98.4362C164.206 97.491 162.668 96.96 161.064 96.96H79.464C78.6678 96.9574 77.8787 97.0858 77.1422 97.3379C76.4056 97.59 75.7361 97.9608 75.1719 98.4291C74.6078 98.8974 74.1601 99.4539 73.8547 100.067C73.5493 100.679 73.392 101.336 73.392 102V142.22H167.112Z" fill="#D6DAFF"/>
<path d="M85.4881 142.22L139.92 96.86H79.4401C78.6356 96.8599 77.8392 96.9935 77.0975 97.253C76.3558 97.5125 75.6837 97.8927 75.1205 98.3713C74.5573 98.85 74.1143 99.4175 73.8175 100.041C73.5207 100.664 73.3761 101.33 73.3921 102V142.22H85.4881Z" fill="white"/>
<path d="M167.112 142.22V152.22C167.112 153.557 166.475 154.839 165.341 155.784C164.206 156.729 162.668 157.26 161.064 157.26H79.464C77.86 157.26 76.3217 156.729 75.1874 155.784C74.0532 154.839 73.416 153.557 73.416 152.22V142.22H167.112Z" fill="white" stroke="#4550E5" stroke-linecap="round" stroke-linejoin="round"/>
<path d="M123.288 149.78C123.288 150.278 123.111 150.766 122.778 151.18C122.446 151.594 121.974 151.917 121.421 152.108C120.869 152.299 120.261 152.349 119.674 152.252C119.087 152.154 118.549 151.914 118.126 151.562C117.703 151.209 117.415 150.76 117.298 150.272C117.181 149.783 117.241 149.276 117.47 148.816C117.699 148.355 118.087 147.962 118.584 147.685C119.081 147.408 119.666 147.26 120.264 147.26C121.066 147.26 121.835 147.526 122.402 147.998C122.969 148.471 123.288 149.112 123.288 149.78Z" fill="#D6DAFF" stroke="#4550E5" stroke-linecap="round" stroke-linejoin="round"/>
<path d="M135.384 167.42H105.12L106.656 157.34H133.872L135.384 167.42Z" fill="white" stroke="#4550E5" stroke-linecap="round" stroke-linejoin="round"/>
<path d="M96.072 167.42H144.432" stroke="#4550E5" stroke-linecap="round" stroke-linejoin="round"/>
<path d="M167.112 142.22V102C167.112 100.663 166.475 99.3814 165.341 98.4362C164.206 97.491 162.668 96.96 161.064 96.96H79.464C78.6678 96.9574 77.8787 97.0858 77.1422 97.3379C76.4056 97.59 75.7361 97.9608 75.1719 98.4291C74.6078 98.8974 74.1601 99.4539 73.8547 100.067C73.5493 100.679 73.392 101.336 73.392 102V142.22H167.112Z" stroke="#4550E5" stroke-linecap="round" stroke-linejoin="round"/>
<path d="M138.408 119.54C138.408 122.531 137.344 125.454 135.35 127.94C133.357 130.427 130.523 132.365 127.207 133.509C123.892 134.654 120.244 134.953 116.724 134.37C113.205 133.786 109.972 132.346 107.434 130.232C104.897 128.117 103.169 125.423 102.469 122.49C101.769 119.557 102.128 116.517 103.501 113.754C104.874 110.991 107.2 108.63 110.184 106.968C113.168 105.307 116.675 104.42 120.264 104.42C122.647 104.42 125.006 104.811 127.207 105.571C129.409 106.331 131.409 107.445 133.094 108.849C134.779 110.253 136.115 111.919 137.027 113.754C137.939 115.588 138.408 117.554 138.408 119.54Z" fill="white"/>
<path d="M138.408 119.54C138.408 122.531 137.344 125.454 135.35 127.94C133.357 130.427 130.523 132.365 127.207 133.509C123.892 134.654 120.244 134.953 116.724 134.37C113.205 133.786 109.972 132.346 107.434 130.232C104.897 128.117 103.169 125.423 102.469 122.49C101.769 119.557 102.128 116.517 103.501 113.754C104.874 110.991 107.2 108.63 110.184 106.968C113.168 105.307 116.675 104.42 120.264 104.42C122.647 104.42 125.006 104.811 127.207 105.571C129.409 106.331 131.409 107.445 133.094 108.849C134.779 110.253 136.115 111.919 137.027 113.754C137.939 115.588 138.408 117.554 138.408 119.54V119.54Z" stroke="#4550E5" stroke-linecap="round" stroke-linejoin="round"/>
<path d="M117.24 128.36C116.643 128.363 116.052 128.267 115.5 128.078C114.948 127.89 114.446 127.611 114.024 127.26L108 122.22C107.214 121.501 106.791 120.558 106.818 119.586C106.845 118.614 107.32 117.688 108.145 117.001C108.97 116.313 110.081 115.917 111.247 115.895C112.414 115.872 113.546 116.225 114.408 116.88L117.264 119.24L124.632 113.1C125.494 112.445 126.626 112.092 127.793 112.115C128.959 112.137 130.07 112.533 130.895 113.221C131.72 113.908 132.195 114.834 132.222 115.806C132.249 116.778 131.826 117.721 131.04 118.44L120.456 127.26C120.035 127.612 119.533 127.891 118.981 128.08C118.429 128.269 117.837 128.364 117.24 128.36Z" fill="#D6DAFF"/>
<path d="M117.24 128.36C116.643 128.363 116.052 128.267 115.5 128.078C114.948 127.89 114.446 127.611 114.024 127.26L108 122.22C107.214 121.501 106.791 120.558 106.818 119.586C106.845 118.614 107.32 117.688 108.145 117.001C108.97 116.313 110.081 115.917 111.247 115.895C112.414 115.872 113.546 116.225 114.408 116.88L117.264 119.24L124.632 113.1C125.494 112.445 126.626 112.092 127.793 112.115C128.959 112.137 130.07 112.533 130.895 113.221C131.72 113.908 132.195 114.834 132.222 115.806C132.249 116.778 131.826 117.721 131.04 118.44L120.456 127.26C120.035 127.612 119.533 127.891 118.981 128.08C118.429 128.269 117.837 128.364 117.24 128.36V128.36Z" stroke="#4550E5" stroke-linecap="round" stroke-linejoin="round"/>
<path d="M58.7739 58.3641L5.43645 70.9667C4.09748 71.2831 3.31979 72.4441 3.69944 73.5599L12.2234 98.6124C12.603 99.7282 13.9963 100.376 15.3352 100.06L68.6727 87.4572C70.0117 87.1409 70.7894 85.9798 70.4097 84.864L61.8857 59.8116C61.5061 58.6958 60.1129 58.0477 58.7739 58.3641Z" fill="white"/>
<path d="M61.968 78.58L58.68 68.88C57.1333 69.2438 55.4766 69.0818 54.073 68.4295C52.6694 67.7772 51.6334 66.6878 51.192 65.4L16.296 73.64C16.7326 74.9289 16.5382 76.3095 15.7554 77.4792C14.9726 78.6488 13.6653 79.5122 12.12 79.88L15.408 89.58C16.1723 89.3968 16.9724 89.3409 17.7627 89.4157C18.5529 89.4905 19.3176 89.6944 20.0132 90.0158C20.7087 90.3372 21.3213 90.7697 21.816 91.2886C22.3107 91.8076 22.6777 92.4027 22.896 93.04L57.792 84.8C57.3561 83.5137 57.5511 82.1358 58.3342 80.9693C59.1174 79.8029 60.4245 78.9434 61.968 78.58Z" fill="white"/>
<path d="M42.864 77.84C43.1938 78.7988 43.1748 79.8176 42.8094 80.7674C42.444 81.7172 41.7486 82.5553 40.8113 83.1756C39.874 83.7959 38.737 84.1705 37.5441 84.2519C36.3511 84.3334 35.1561 84.118 34.1101 83.6332C33.0641 83.1483 32.2143 82.4157 31.6682 81.5281C31.1222 80.6406 30.9044 79.6379 31.0425 78.6472C31.1807 77.6564 31.6684 76.7221 32.4441 75.9625C33.2198 75.2028 34.2485 74.6521 35.4 74.38C36.9402 74.0214 38.5879 74.1837 39.9854 74.8315C41.3829 75.4793 42.4173 76.5604 42.864 77.84Z" fill="#D6DAFF"/>
<path d="M42.864 77.84C43.1938 78.7988 43.1748 79.8176 42.8094 80.7674C42.444 81.7172 41.7486 82.5553 40.8113 83.1756C39.874 83.7959 38.737 84.1705 37.5441 84.2519C36.3511 84.3334 35.1561 84.118 34.1101 83.6332C33.0641 83.1483 32.2143 82.4157 31.6682 81.5281C31.1222 80.6406 30.9044 79.6379 31.0425 78.6472C31.1807 77.6564 31.6684 76.7221 32.4441 75.9625C33.2198 75.2028 34.2485 74.6521 35.4 74.38C36.9402 74.0214 38.5879 74.1837 39.9854 74.8315C41.3829 75.4793 42.4173 76.5604 42.864 77.84Z" stroke="#4550E5" stroke-linecap="round" stroke-linejoin="round"/>
<path d="M61.968 78.58L58.68 68.88C57.1333 69.2438 55.4766 69.0818 54.073 68.4295C52.6694 67.7772 51.6334 66.6878 51.192 65.4L16.296 73.64C16.7326 74.9289 16.5382 76.3095 15.7554 77.4792C14.9726 78.6488 13.6653 79.5122 12.12 79.88L15.408 89.58C16.1723 89.3968 16.9724 89.3409 17.7627 89.4157C18.5529 89.4905 19.3176 89.6944 20.0132 90.0158C20.7087 90.3372 21.3213 90.7697 21.816 91.2886C22.3107 91.8076 22.6777 92.4027 22.896 93.04L57.792 84.8C57.3561 83.5137 57.5511 82.1358 58.3342 80.9693C59.1174 79.8029 60.4245 78.9434 61.968 78.58V78.58Z" stroke="#4550E5" stroke-linecap="round" stroke-linejoin="round"/>
<path d="M58.7739 58.3641L5.43645 70.9667C4.09748 71.2831 3.31979 72.4441 3.69944 73.5599L12.2234 98.6124C12.603 99.7282 13.9963 100.376 15.3352 100.06L68.6727 87.4572C70.0117 87.1409 70.7894 85.9798 70.4097 84.864L61.8857 59.8116C61.5061 58.6958 60.1129 58.0477 58.7739 58.3641Z" stroke="#4550E5" stroke-linecap="round" stroke-linejoin="round"/>
<path d="M222.768 99.48L180.12 89.3C179.484 89.1502 178.89 88.8972 178.371 88.5555C177.853 88.2137 177.421 87.79 177.1 87.3087C176.779 86.8273 176.575 86.2978 176.5 85.7506C176.425 85.2034 176.481 84.6492 176.664 84.12L183.864 63.12C184.044 62.59 184.347 62.0948 184.757 61.6629C185.167 61.231 185.676 60.8709 186.254 60.6032C186.831 60.3356 187.467 60.1657 188.123 60.1034C188.78 60.0411 189.445 60.0875 190.08 60.24L232.8 70.42C234.081 70.7271 235.164 71.4446 235.811 72.4153C236.459 73.3861 236.619 74.5312 236.256 75.6L229.056 96.6C228.877 97.1367 228.571 97.6381 228.156 98.0748C227.741 98.5115 227.225 98.8747 226.639 99.143C226.054 99.4113 225.409 99.5793 224.745 99.6372C224.08 99.6951 223.408 99.6416 222.768 99.48Z" fill="white"/>
<path d="M235.946 76.4114L183.618 63.9237L181.953 68.7689L234.281 81.2566L235.946 76.4114Z" fill="#D6DAFF"/>
<path d="M182.76 84.7L197.304 88.16" stroke="#4550E5" stroke-linecap="round" stroke-linejoin="round"/>
<path d="M226.799 84.7045L186.099 74.9918L184.434 79.8371L225.134 89.5497L226.799 84.7045Z" fill="white"/>
<path d="M222.768 99.48L180.12 89.3C179.484 89.1502 178.89 88.8972 178.371 88.5555C177.853 88.2137 177.421 87.79 177.1 87.3087C176.779 86.8273 176.575 86.2978 176.5 85.7506C176.425 85.2034 176.481 84.6492 176.664 84.12L183.864 63.12C184.044 62.59 184.347 62.0948 184.757 61.6629C185.167 61.231 185.676 60.8709 186.254 60.6032C186.831 60.3356 187.467 60.1657 188.123 60.1034C188.78 60.0411 189.445 60.0875 190.08 60.24L232.8 70.42C234.081 70.7271 235.164 71.4446 235.811 72.4154C236.459 73.3861 236.619 74.5312 236.256 75.6L229.056 96.6C228.877 97.1367 228.571 97.6381 228.156 98.0748C227.741 98.5115 227.225 98.8747 226.639 99.143C226.054 99.4113 225.409 99.5793 224.745 99.6372C224.08 99.6951 223.408 99.6416 222.768 99.48V99.48Z" stroke="#4550E5" stroke-linecap="round" stroke-linejoin="round"/>
<path d="M235.946 76.4114L183.618 63.9237L181.953 68.7689L234.281 81.2566L235.946 76.4114Z" stroke="#4550E5" stroke-linecap="round" stroke-linejoin="round"/>
<path d="M226.799 84.7045L186.099 74.9918L184.434 79.8371L225.134 89.5497L226.799 84.7045Z" stroke="#4550E5" stroke-linecap="round" stroke-linejoin="round"/>
<path d="M120.264 76.6C131.398 76.6 140.424 69.0784 140.424 59.8C140.424 50.5216 131.398 43 120.264 43C109.13 43 100.104 50.5216 100.104 59.8C100.104 69.0784 109.13 76.6 120.264 76.6Z" fill="#D6DAFF"/>
<path d="M120.264 43C116.277 42.9998 112.379 43.9849 109.063 45.8309C105.747 47.6769 103.163 50.3008 101.637 53.3708C100.111 56.4407 99.712 59.8188 100.49 63.0779C101.268 66.3369 103.188 69.3305 106.008 71.68L134.52 48C132.655 46.4264 130.436 45.1749 127.99 44.3169C125.543 43.4589 122.918 43.0114 120.264 43Z" fill="white"/>
<path d="M120.264 76.6C131.398 76.6 140.424 69.0784 140.424 59.8C140.424 50.5216 131.398 43 120.264 43C109.13 43 100.104 50.5216 100.104 59.8C100.104 69.0784 109.13 76.6 120.264 76.6Z" stroke="#4550E5" stroke-miterlimit="10"/>
<path d="M120.264 68.2V70.3" stroke="#4550E5" stroke-linecap="round" stroke-linejoin="round"/>
<path d="M120.264 49.3V51.4001" stroke="#4550E5" stroke-linecap="round" stroke-linejoin="round"/>
<path d="M115.2 64C115.2 64.8307 115.496 65.6427 116.049 66.3334C116.603 67.0241 117.39 67.5624 118.311 67.8803C119.232 68.1982 120.246 68.2814 121.223 68.1193C122.201 67.9573 123.099 67.5573 123.804 66.9699C124.509 66.3825 124.989 65.6341 125.183 64.8194C125.378 64.0047 125.278 63.1602 124.896 62.3928C124.515 61.6253 123.869 60.9694 123.04 60.5079C122.211 60.0464 121.237 59.8 120.24 59.8C119.243 59.8 118.269 59.5537 117.44 59.0922C116.611 58.6307 115.965 57.9747 115.584 57.2073C115.202 56.4398 115.102 55.5954 115.297 54.7806C115.491 53.9659 115.971 53.2176 116.676 52.6302C117.381 52.0428 118.279 51.6428 119.257 51.4807C120.234 51.3187 121.248 51.4018 122.169 51.7197C123.09 52.0376 123.877 52.5759 124.431 53.2666C124.984 53.9573 125.28 54.7693 125.28 55.6" stroke="#4550E5" stroke-linecap="round" stroke-linejoin="round"/>
</svg>
