<svg width="370" height="290" viewBox="0 0 370 290" fill="none" xmlns="http://www.w3.org/2000/svg">
<path d="M333 204.305C332.992 186.996 328.043 169.908 318.514 154.293C308.985 138.678 295.119 124.932 277.931 114.064C260.743 103.195 240.67 95.4794 219.184 91.4815C197.697 87.4836 175.341 87.3053 153.755 90.9595C132.168 94.6138 111.899 102.008 94.4328 112.6C76.9665 123.192 62.746 136.714 52.8136 152.173C42.8812 167.633 37.4888 184.639 37.0317 201.944C36.5746 219.249 41.0644 236.416 50.172 252.184H319.828C328.524 237.143 333.015 220.818 333 204.305Z" fill="#F0F2FF"/>
<path d="M40.7 252.184H329.3" stroke="#4550E5" stroke-linecap="round" stroke-linejoin="round"/>
<path d="M24.05 252.184H33.3" stroke="#4550E5" stroke-linecap="round" stroke-linejoin="round"/>
<path d="M336.7 252.184H345.95" stroke="#4550E5" stroke-linecap="round" stroke-linejoin="round"/>
<path d="M157.028 289.855C193.81 289.855 223.628 287.907 223.628 285.505C223.628 283.103 193.81 281.155 157.028 281.155C120.246 281.155 90.428 283.103 90.428 285.505C90.428 287.907 120.246 289.855 157.028 289.855Z" fill="#F0F2FF"/>
<path d="M234.58 189.515C240.468 189.515 246.114 187.682 250.278 184.419C254.441 181.155 256.78 176.73 256.78 172.115V137.315C256.794 132.543 255.555 127.82 253.141 123.439C250.727 119.058 247.189 115.113 242.747 111.85C238.305 108.586 233.055 106.073 227.322 104.467C221.588 102.861 215.495 102.197 209.42 102.515C197.985 103.292 187.351 107.437 179.661 114.115C171.971 120.794 167.797 129.509 167.98 138.504V172.115C167.98 176.73 170.319 181.155 174.482 184.419C178.646 187.682 184.292 189.515 190.18 189.515H234.58Z" fill="white"/>
<path d="M234.58 189.515C240.468 189.515 246.114 187.682 250.278 184.419C254.441 181.155 256.78 176.73 256.78 172.115V137.315C256.794 132.543 255.555 127.82 253.141 123.439C250.727 119.058 247.189 115.113 242.747 111.85C238.305 108.586 233.055 106.073 227.322 104.467C221.588 102.861 215.495 102.197 209.42 102.515C197.985 103.292 187.351 107.437 179.661 114.115C171.971 120.794 167.797 129.509 167.98 138.504V172.115C167.98 176.73 170.319 181.155 174.482 184.419C178.646 187.682 184.292 189.515 190.18 189.515H234.58Z" stroke="#4550E5" stroke-linecap="round" stroke-linejoin="round"/>
<path d="M212.38 184.295C204.784 184.295 197.264 185.47 190.249 187.753C183.234 190.035 176.862 193.38 171.5 197.597C166.138 201.813 161.89 206.817 159 212.323C156.111 217.828 154.636 223.727 154.66 229.68V241.86C154.66 264.799 144.263 267.96 132.756 267.96H123.58V283.62H132.756C148.888 283.62 176.86 273.093 176.86 252.3H247.9C247.9 265.524 235.468 267.96 225.996 267.96H216.82V283.62H225.996C244.2 283.475 270.1 280.43 270.1 252.155V229.68C270.129 223.726 268.658 217.826 265.769 212.318C262.881 206.811 258.634 201.805 253.271 197.588C247.907 193.371 241.534 190.026 234.517 187.745C227.5 185.464 219.977 184.291 212.38 184.295Z" fill="white"/>
<path d="M212.38 184.295C204.784 184.295 197.264 185.47 190.249 187.753C183.234 190.035 176.862 193.38 171.5 197.597C166.138 201.813 161.89 206.817 159 212.323C156.111 217.828 154.636 223.727 154.66 229.68V241.86C154.66 264.799 144.263 267.96 132.756 267.96H123.58V283.62H132.756C148.888 283.62 176.86 273.093 176.86 252.3H247.9C247.9 265.524 235.468 267.96 225.996 267.96H216.82V283.62H225.996C244.2 283.475 270.1 280.43 270.1 252.155V229.68C270.129 223.726 268.658 217.826 265.769 212.318C262.881 206.811 258.634 201.805 253.271 197.588C247.907 193.371 241.534 190.026 234.517 187.745C227.5 185.464 219.977 184.291 212.38 184.295V184.295Z" stroke="#4550E5" stroke-linecap="round" stroke-linejoin="round"/>
<path d="M176.86 231.275V252.155" stroke="#4550E5" stroke-linecap="round" stroke-linejoin="round"/>
<path d="M247.9 231.275V252.155" stroke="#4550E5" stroke-linecap="round" stroke-linejoin="round"/>
<path d="M216.82 281.88H210.16C207.805 281.88 205.546 281.147 203.881 279.841C202.216 278.536 201.28 276.766 201.28 274.92C201.28 273.074 202.216 271.304 203.881 269.998C205.546 268.693 207.805 267.96 210.16 267.96H216.82V281.88Z" fill="white" stroke="#4550E5" stroke-linecap="round" stroke-linejoin="round"/>
<path d="M123.58 281.88H116.92C114.565 281.88 112.306 281.147 110.641 279.841C108.976 278.536 108.04 276.766 108.04 274.92C108.04 273.074 108.976 271.304 110.641 269.998C112.306 268.693 114.565 267.96 116.92 267.96H123.58V281.88Z" fill="white" stroke="#4550E5" stroke-linecap="round" stroke-linejoin="round"/>
<path d="M212.38 206.915V252.155" stroke="#4550E5" stroke-linecap="round" stroke-linejoin="round"/>
<path d="M225.7 186.035L212.38 206.915L199.06 186.035V177.335H225.7V186.035Z" fill="white"/>
<path d="M225.7 186.035L212.38 206.915L199.06 186.035V177.335H225.7V186.035Z" stroke="#4550E5" stroke-linecap="round" stroke-linejoin="round"/>
<path d="M191.586 202.072C191.938 202.431 192.393 202.72 192.913 202.916C193.434 203.113 194.005 203.211 194.583 203.203C195.157 203.192 195.721 203.076 196.228 202.865C196.735 202.653 197.173 202.352 197.506 201.985L204.166 194.735C204.638 194.236 204.892 193.631 204.892 193.01C204.892 192.388 204.638 191.783 204.166 191.284L198.69 185.484C192.513 186.652 186.625 188.612 181.263 191.284L191.586 202.072Z" fill="white" stroke="#4550E5" stroke-linecap="round" stroke-linejoin="round"/>
<path d="M233.1 202.072C232.755 202.432 232.308 202.725 231.795 202.926C231.281 203.127 230.714 203.232 230.14 203.232C229.566 203.232 228.999 203.127 228.485 202.926C227.971 202.725 227.525 202.432 227.18 202.072L220.631 194.88C220.159 194.381 219.905 193.776 219.905 193.155C219.905 192.533 220.159 191.928 220.631 191.429L226.107 185.629C232.295 186.797 238.196 188.757 243.571 191.429L233.1 202.072Z" fill="white" stroke="#4550E5" stroke-linecap="round" stroke-linejoin="round"/>
<path d="M250.12 146.015V139.055C250.12 138.243 250.12 137.431 250.12 136.648C241.989 140.328 232.462 141.642 223.217 140.358C213.972 139.074 205.601 135.275 199.578 129.63C198.342 133.217 195.698 136.408 192.018 138.75C188.339 141.092 183.812 142.467 179.08 142.68C177.585 142.677 176.096 142.541 174.64 142.274V146.16C172.877 146.168 171.188 146.72 169.941 147.697C168.694 148.675 167.99 149.998 167.98 151.38V153.12C167.99 154.502 168.694 155.825 169.941 156.803C171.188 157.78 172.877 158.332 174.64 158.34H175.269C176.809 165.181 181.375 171.379 188.165 175.844C194.955 180.309 203.535 182.756 212.398 182.756C221.262 182.756 229.842 180.309 236.632 175.844C243.422 171.379 247.988 165.181 249.528 158.34H250.12C251.886 158.34 253.58 157.79 254.829 156.811C256.078 155.832 256.78 154.504 256.78 153.12V151.38C256.805 150.682 256.651 149.988 256.327 149.338C256.003 148.688 255.517 148.095 254.896 147.595C254.275 147.095 253.532 146.697 252.712 146.426C251.892 146.154 251.01 146.015 250.12 146.015Z" fill="white" stroke="#4550E5" stroke-linecap="round" stroke-linejoin="round"/>
<path d="M194.62 158.195C194.62 158.883 194.36 159.556 193.872 160.128C193.384 160.701 192.69 161.147 191.879 161.41C191.068 161.673 190.175 161.742 189.314 161.608C188.453 161.474 187.661 161.142 187.04 160.656C186.419 160.169 185.997 159.549 185.825 158.874C185.654 158.199 185.742 157.499 186.078 156.863C186.414 156.227 186.983 155.684 187.713 155.301C188.443 154.919 189.302 154.715 190.18 154.715C191.358 154.715 192.487 155.082 193.32 155.734C194.152 156.387 194.62 157.272 194.62 158.195Z" fill="#D6DAFF"/>
<path d="M239.02 158.195C239.02 158.883 238.76 159.556 238.272 160.128C237.784 160.701 237.09 161.147 236.279 161.41C235.468 161.673 234.575 161.742 233.714 161.608C232.853 161.474 232.061 161.142 231.44 160.656C230.82 160.169 230.397 159.549 230.225 158.874C230.054 158.199 230.142 157.499 230.478 156.863C230.814 156.227 231.383 155.684 232.113 155.301C232.843 154.919 233.702 154.715 234.58 154.715C235.758 154.715 236.887 155.082 237.72 155.734C238.552 156.387 239.02 157.272 239.02 158.195Z" fill="#D6DAFF"/>
<path d="M201.28 165.155C204.273 167.389 208.247 168.635 212.38 168.635C216.513 168.635 220.487 167.389 223.48 165.155" stroke="#4550E5" stroke-linecap="round" stroke-linejoin="round"/>
<path d="M232.36 149.495C231.897 148.642 231.124 147.914 230.137 147.402C229.15 146.891 227.993 146.618 226.81 146.618C225.627 146.618 224.47 146.891 223.483 147.402C222.496 147.914 221.723 148.642 221.26 149.495" stroke="#4550E5" stroke-linecap="round" stroke-linejoin="round"/>
<path d="M203.5 148.915C203.037 148.062 202.264 147.334 201.277 146.822C200.29 146.311 199.133 146.038 197.95 146.038C196.767 146.038 195.61 146.311 194.623 146.822C193.636 147.334 192.863 148.062 192.4 148.915" stroke="#4550E5" stroke-linecap="round" stroke-linejoin="round"/>
<path d="M159.1 158.195V163.415C159.1 165.471 159.617 167.508 160.621 169.408C161.625 171.308 163.097 173.034 164.952 174.488C166.807 175.942 169.01 177.096 171.434 177.883C173.858 178.67 176.456 179.075 179.08 179.075H190.18" stroke="#4550E5" stroke-linecap="round" stroke-linejoin="round"/>
<path d="M163.54 144.275H172.42V161.675H163.54C162.362 161.675 161.233 161.309 160.4 160.656C159.568 160.003 159.1 159.118 159.1 158.195V147.755C159.1 146.832 159.568 145.947 160.4 145.294C161.233 144.642 162.362 144.275 163.54 144.275Z" fill="white" stroke="#4550E5" stroke-linecap="round" stroke-linejoin="round"/>
<path d="M167.98 158.195C167.98 159.118 168.448 160.003 169.28 160.656C170.113 161.309 171.242 161.675 172.42 161.675C173.598 161.675 174.727 161.309 175.56 160.656C176.392 160.003 176.86 159.118 176.86 158.195V147.755C176.86 146.832 176.392 145.947 175.56 145.294C174.727 144.642 173.598 144.275 172.42 144.275C171.242 144.275 170.113 144.642 169.28 145.294C168.448 145.947 167.98 146.832 167.98 147.755V158.195Z" fill="#D6DAFF" stroke="#4550E5" stroke-linecap="round" stroke-linejoin="round"/>
<path d="M261.22 161.675H252.34V144.275H261.22C262.398 144.275 263.527 144.642 264.359 145.294C265.192 145.947 265.66 146.832 265.66 147.755V158.195C265.66 159.118 265.192 160.003 264.359 160.656C263.527 161.309 262.398 161.675 261.22 161.675Z" fill="white" stroke="#4550E5" stroke-linecap="round" stroke-linejoin="round"/>
<path d="M256.78 158.195C256.78 159.118 256.312 160.003 255.48 160.656C254.647 161.309 253.518 161.675 252.34 161.675C251.162 161.675 250.033 161.309 249.2 160.656C248.368 160.003 247.9 159.118 247.9 158.195V147.755C247.9 146.832 248.368 145.947 249.2 145.294C250.033 144.642 251.162 144.275 252.34 144.275C253.518 144.275 254.647 144.642 255.48 145.294C256.312 145.947 256.78 146.832 256.78 147.755V158.195Z" fill="#D6DAFF" stroke="#4550E5" stroke-linecap="round" stroke-linejoin="round"/>
<path d="M203.5 179.075C203.5 180.107 203.109 181.117 202.378 181.975C201.646 182.833 200.606 183.503 199.389 183.898C198.172 184.293 196.833 184.396 195.541 184.195C194.249 183.993 193.062 183.496 192.131 182.766C191.199 182.036 190.565 181.106 190.308 180.093C190.051 179.081 190.183 178.031 190.687 177.077C191.191 176.124 192.045 175.308 193.14 174.735C194.235 174.161 195.523 173.855 196.84 173.855C198.603 173.863 200.292 174.415 201.539 175.392C202.785 176.37 203.49 177.693 203.5 179.075Z" fill="#D6DAFF" stroke="#4550E5" stroke-linecap="round" stroke-linejoin="round"/>
<path d="M159.1 152.975V137.315C159.1 126.24 164.713 115.618 174.705 107.786C184.697 99.9548 198.249 95.5551 212.38 95.5551C226.511 95.5551 240.063 99.9548 250.055 107.786C260.047 115.618 265.66 126.24 265.66 137.315V152.975" stroke="#4550E5" stroke-linecap="round" stroke-linejoin="round"/>
<path d="M170.681 276.805H178.932L161.283 233.856C161.032 233.25 160.534 232.726 159.865 232.365C159.196 232.003 158.394 231.824 157.583 231.855H152.181L170.681 276.805Z" fill="#D6DAFF" stroke="#4550E5" stroke-linejoin="round"/>
<path d="M98.531 276.805H170.681L152.181 231.855H85.1C84.516 231.855 83.9404 231.964 83.4203 232.172C82.9001 232.38 82.4503 232.682 82.1074 233.052C81.7646 233.423 81.5385 233.852 81.4477 234.304C81.3569 234.756 81.4039 235.219 81.585 235.654L98.531 276.805Z" fill="#D6DAFF"/>
<path d="M98.531 276.805H174.381V284.055H105.931C103.968 284.055 102.086 283.444 100.698 282.356C99.3106 281.268 98.531 279.793 98.531 278.255V276.805Z" fill="#D6DAFF" stroke="#4550E5" stroke-linejoin="round"/>
<path d="M174.381 276.805H207.681C208.172 276.805 208.642 276.958 208.989 277.23C209.336 277.502 209.531 277.87 209.531 278.255C209.531 279.793 208.751 281.268 207.364 282.356C205.976 283.444 204.094 284.055 202.131 284.055H174.381V276.805Z" fill="#D6DAFF" stroke="#4550E5" stroke-linejoin="round"/>
<path d="M129.5 252.88C129.465 252.313 129.616 251.748 129.94 251.24C130.264 250.732 130.75 250.298 131.35 249.98C130.973 249.56 130.475 249.215 129.897 248.973C129.318 248.731 128.675 248.599 128.02 248.588C126.614 248.588 125.245 249.226 124.542 249.226C123.839 249.226 122.729 248.588 121.545 248.617C120.787 248.64 120.049 248.814 119.401 249.124C118.753 249.433 118.218 249.868 117.845 250.386C117.243 251.563 117.033 252.84 117.233 254.098C117.434 255.356 118.039 256.554 118.992 257.578C119.769 258.448 120.694 259.405 121.878 259.376C123.062 259.347 123.469 258.796 124.838 258.796C126.207 258.796 126.651 259.376 127.835 259.347C129.019 259.318 129.87 258.477 130.647 257.607C131.169 256.973 131.592 256.291 131.905 255.577C131.219 255.352 130.629 254.979 130.203 254.502C129.778 254.024 129.534 253.462 129.5 252.88Z" fill="white" stroke="#4550E5" stroke-linejoin="round"/>
<path d="M126.281 244.905L127.946 243.6" stroke="#4550E5" stroke-linecap="round" stroke-linejoin="round"/>
<path d="M98.531 276.805H170.681L152.181 231.855H85.1C84.516 231.855 83.9404 231.964 83.4203 232.172C82.9001 232.38 82.4503 232.682 82.1074 233.052C81.7646 233.423 81.5385 233.852 81.4477 234.304C81.3569 234.756 81.4039 235.219 81.585 235.654L98.531 276.805Z" stroke="#4550E5" stroke-linejoin="round"/>
</svg>
