<svg width="50" height="50" viewBox="0 0 50 50" fill="none" xmlns="http://www.w3.org/2000/svg">
<g clip-path="url(#clip0)">
<path d="M48.9854 0H-0.985352C-0.993442 0 -1 0.00655833 -1 0.0146484V49.9854C-1 49.9934 -0.993442 50 -0.985352 50H48.9854C48.9934 50 49 49.9934 49 49.9854V0.0146484C49 0.00655833 48.9934 0 48.9854 0Z" fill="#4455DD"/>
<path d="M40.6992 16.5039C40.3086 15.0391 39.0391 13.8672 37.5742 13.4766C34.2539 12.5976 14.2344 12.5 10.4258 13.4766C8.96093 13.8672 7.6914 15.0391 7.30077 16.5039C6.42187 20.2148 6.32421 29.6875 7.30077 33.4961C7.6914 34.9609 8.96093 36.1328 10.4258 36.5234C13.9414 37.5 33.9609 37.5 37.5742 36.5234C39.0391 36.1328 40.3086 34.9609 40.6992 33.4961C41.5781 29.9805 41.5781 20.1172 40.6992 16.5039Z" fill="black"/>
<path d="M20.4844 19.8242V30.1758L29.5664 25" fill="#4455DD"/>
</g>
<defs>
<clipPath id="clip0">
<rect width="50" height="50" fill="white"/>
</clipPath>
</defs>
</svg>
